<?xml version="1.0" encoding="utf-8"?>
<!-- Generator: Adobe Illustrator 21.0.0, SVG Export Plug-In . SVG Version: 6.00 Build 0)  -->
<svg version="1.1" id="Layer_1" xmlns="http://www.w3.org/2000/svg" xmlns:xlink="http://www.w3.org/1999/xlink" x="0px" y="0px"
	 viewBox="0 0 9.4 9.4" style="enable-background:new 0 0 9.4 9.4;" xml:space="preserve">
<style type="text/css">
	.st0{fill:#FFFFFF;stroke:#000000;stroke-miterlimit:10;}
	.st1{fill:#E03E24;}
</style>
<path class="st0" d="M0.5,3.9"/>
<path class="st1" d="M6.7,4.7L9,2.4c0.6-0.6,0.6-1.4,0-2c-0.6-0.6-1.4-0.6-2,0L4.7,2.7L2.4,0.4c-0.6-0.6-1.4-0.6-2,0
	c-0.6,0.6-0.6,1.4,0,2l2.3,2.3L0.4,7c-0.6,0.6-0.6,1.4,0,2c0.6,0.6,1.4,0.6,2,0l2.3-2.3L7,9c0.6,0.6,1.4,0.6,2,0
	c0.6-0.6,0.6-1.4,0-2L6.7,4.7z"/>
</svg>
