<?xml version="1.0" encoding="utf-8"?>
<!-- Generator: Adobe Illustrator 21.0.0, SVG Export Plug-In . SVG Version: 6.00 Build 0)  -->
<svg version="1.1" id="Layer_1" xmlns="http://www.w3.org/2000/svg" xmlns:xlink="http://www.w3.org/1999/xlink" x="0px" y="0px"
	 viewBox="0 0 67 30" style="enable-background:new 0 0 67 30;" xml:space="preserve">
<style type="text/css">
	.st0{fill:#1A8EFF;}
	.st1{fill:#2692FF;}
</style>
<path class="st0" d="M8,0C3.4,0,0,1.9,0,4.5S3.4,9,8,9s8-1.9,8-4.5S12.6,0,8,0z M8,7C4.3,7,2,5.5,2,4.5S4.3,2,8,2s6,1.5,6,2.5
	S11.7,7,8,7z"/>
<path id="e" class="st1" d="M8.3,29.3c-2.4,0-4.4-0.7-5.8-2.1c-1.5-1.4-2.3-3.3-2.3-5.9v-0.2c0-2.5,0.9-4.5,2.3-5.9
	c1.4-1.4,3.4-2.2,5.7-2.2c2,0,3.9,0.6,5.3,1.9s2.3,3.3,2.3,6.1v1.2H4.6c0.1,2.6,1.5,4.1,3.9,4.1c2,0,3-0.9,3.3-2.2h4.1
	C15.3,27.4,12.6,29.3,8.3,29.3z M11.6,19.5c-0.2-2.4-1.4-3.5-3.4-3.5c-1.9,0-3.3,1.3-3.6,3.5H11.6z"/>
<path id="will" d="M17.7,13.3h4.6L25,23.9l3-10.6h3.6l2.8,10.6l3-10.6h4.2L36.6,29h-4.3l-2.7-9.8L26.8,29h-4.3L17.7,13.3z
	 M46.5,11.2c-1.4,0-2.5-1-2.5-2.4s1.1-2.4,2.5-2.4s2.5,1,2.5,2.4S47.9,11.2,46.5,11.2z M44.4,13.3h4.3V29h-4.3V13.3z M53.2,6.2h4.3
	V29h-4.3V6.2z M61.9,6.2h4.3V29h-4.3V6.2z"/>
</svg>
