<?xml version="1.0" encoding="UTF-8"?>
<svg width="156px" height="46px" viewBox="0 0 156 46" version="1.1" xmlns="http://www.w3.org/2000/svg" xmlns:xlink="http://www.w3.org/1999/xlink">
    <!-- Generator: Sketch 51.1 (57501) - http://www.bohemiancoding.com/sketch -->
    <title>Group 15</title>
    <desc>Created with Sketch.</desc>
    <defs></defs>
    <g id="Page-1" stroke="none" stroke-width="1" fill="none" fill-rule="evenodd">
        <g id="Main-Copy" transform="translate(-117.000000, -34.000000)">
            <g id="Group-15" transform="translate(117.000000, 34.000000)">
                <path d="M23.35992,22.1815147 C23.35992,18.7125532 21.1514517,16.9246451 18.6650078,16.9246451 C16.2130712,16.9246451 13.9720127,18.7125532 13.9720127,22.1815147 C13.9720127,25.6504763 16.2130712,27.5070767 18.6650078,27.5070767 C21.1514517,27.5070767 23.35992,25.6867306 23.35992,22.1815147 M27.3972761,22.1815147 C27.3972761,27.3353459 23.7049932,31.0790767 18.6650078,31.0790767 C13.6595298,31.0790767 9.96724683,27.3353459 9.96724683,22.1815147 C9.96724683,17.0620297 13.6595298,13.3163908 18.6650078,13.3163908 C23.7049932,13.3163908 27.3972761,17.0620297 27.3972761,22.1815147" id="Fill-1" fill="#000000"></path>
                <path d="M37.9766444,30.5650293 L33.9737956,30.5650293 L33.9737956,13.832728 L37.8731224,13.832728 L37.8731224,16.065228 C38.9773566,14.1437515 41.7111029,13.3518818 43.5764151,13.3518818 C47.554342,13.3518818 49.65162,16.3056511 49.65162,19.9825976 L49.65162,30.5650293 L45.6468541,30.5650293 L45.6468541,20.6695207 C45.6468541,18.6087515 44.4985273,16.9601361 41.8625517,16.9601361 C39.3473517,16.9601361 37.9766444,18.71179 37.9766444,20.9099438 L37.9766444,30.5650293 Z" id="Fill-3" fill="#000000"></path>
                <path d="M90.1635937,16.9939098 C87.5391205,16.9939098 85.641218,19.0546791 85.641218,22.1820872 C85.641218,25.3781876 87.5391205,27.4389568 90.1635937,27.4389568 C92.8206571,27.4389568 94.6840522,25.3781876 94.6840522,22.1820872 C94.6840522,19.0546791 92.8551644,16.9939098 90.1635937,16.9939098 Z M81.7073839,45.205459 L81.7073839,13.8340637 L85.5722034,13.8340637 L85.5722034,16.1009098 C86.400379,14.6564632 88.3347059,13.456256 90.9227546,13.456256 C95.8918083,13.456256 98.688818,17.2343329 98.688818,22.1820872 C98.688818,27.1985338 95.6176668,30.9766107 90.7847254,30.9766107 C88.3672961,30.9766107 86.5384083,29.9462261 85.6757254,28.6754184 L85.6757254,45.205459 L81.7073839,45.205459 Z" id="Fill-5" fill="#2692FF"></path>
                <path d="M119.499989,22.1815147 C119.499989,25.3776152 121.365301,27.4383844 124.020448,27.4383844 C126.646838,27.4383844 128.54474,25.3776152 128.54474,22.1815147 C128.54474,19.0541066 126.646838,16.9933374 124.020448,16.9933374 C121.328877,16.9933374 119.499989,19.0541066 119.499989,22.1815147 Z M128.508316,30.3368182 L128.508316,28.6748459 C127.645633,29.9456536 125.816745,30.9760382 123.399316,30.9760382 C118.568292,30.9760382 115.495223,27.1979613 115.495223,22.1815147 C115.495223,17.2337605 118.292233,13.4556835 123.263204,13.4556835 C125.851253,13.4556835 127.783662,14.6577989 128.611838,16.1003374 L128.611838,13.8334912 L132.478575,13.8334912 L132.478575,30.3368182 L128.508316,30.3368182 Z" id="Fill-7" fill="#2692FF"></path>
                <path d="M60.4180946,21.5461109 C60.2110507,18.7240019 62.2067239,16.4628801 65.2318654,16.4628801 C68.3777824,16.460972 70.279519,18.8022348 70.0628898,21.691128 C69.965119,23.0077306 68.9222312,24.8299848 67.4652556,26.0225596 C66.6159922,26.7171152 66.035119,27.1235447 65.5673532,27.3639677 C65.274041,27.1750639 65.038241,27.0281387 64.90788,26.9575382 C61.7447093,24.9940831 60.5772117,23.6908374 60.4180946,21.5461109 M69.0717629,29.6708844 C68.9318166,29.5792947 68.8206263,29.5067861 68.6864312,29.4190126 C69.284558,28.9896857 70.2833532,28.3180276 70.48848,28.13294 C72.3173678,26.474784 73.7168312,24.6429891 73.9948068,21.9391835 C74.5680117,16.2968737 69.9401971,12.856534 65.1916068,12.8584421 C59.9196556,12.8603502 55.9877385,16.5029506 56.2829678,21.548019 C56.5072654,25.3509015 58.986041,27.5318823 61.2884459,29.1022647 C63.5889337,30.6764635 64.3883532,31.0370981 65.4676654,31.7278374 C67.8908459,33.2829549 69.8730995,35.2902968 69.9727873,37.4369314 C70.122319,40.5929613 67.4575873,42.3217177 65.2107776,42.3236259 C62.5805532,42.3236259 60.1784605,40.5051878 60.3548312,37.1449891 C60.4775239,34.8495212 62.0955337,33.4890318 63.5525093,32.2945489 C62.523041,31.6381558 61.0008849,30.6344848 60.3816702,30.1937092 C57.9431532,32.0484015 56.6203727,33.8859207 56.3002215,36.9064741 C55.7001776,42.5468759 60.3529141,45.9910318 65.1015044,45.9872156 C70.3734556,45.9853075 74.0810751,42.3503395 74.0082263,37.2976387 C73.9564654,33.7370874 71.3185727,31.1325041 69.0717629,29.6708844" id="Fill-9" fill="#000000"></path>
                <polygon id="Fill-11" fill="#000000" points="0 30.4156235 4.00476585 30.4156235 4.00476585 0.204364957 0 0.204364957"></polygon>
                <polygon id="Fill-13" fill="#2692FF" points="104.892659 30.4156235 108.897424 30.4156235 108.897424 0.204364957 104.892659 0.204364957"></polygon>
                <path d="M155.591192,13.8596325 L151.563421,13.8596325 L151.563421,23.5147179 C151.563421,25.7128718 150.271314,27.4645256 147.836631,27.4645256 C145.141226,27.4645256 144.144348,25.8159103 144.144348,23.755141 L144.144348,13.8596325 L140.11466,13.8596325 L140.11466,24.4420641 C140.11466,28.1190107 141.966553,31.0727799 146.358568,31.0727799 C148.352324,31.0727799 150.493695,30.2809103 151.674612,28.3594338 L151.674612,37.1253355 C151.674612,39.4627821 150.340329,41.4109722 147.984246,41.4109722 C146.496597,41.4109722 145.246665,41.0236239 144.431909,39.6345128 C144.134763,39.126953 143.985231,38.5659658 143.891295,38.0030705 L140.133831,38.0030705 C140.292948,39.796703 140.850817,41.4319615 142.025982,42.5825577 C143.801192,44.3170385 145.685675,44.8570363 147.853885,44.8570363 C150.418929,44.8570363 152.424187,43.9525876 153.890748,42.2543611 C154.66908,41.3709017 155.113841,40.3252521 155.382231,39.0964231 C155.470417,38.648015 155.591192,37.1043462 155.591192,35.491985 L155.591192,13.8596325 Z" id="Fill-14" fill="#2692FF"></path>
            </g>
        </g>
    </g>
</svg>