<?xml version="1.0" encoding="UTF-8"?>
<svg width="152px" height="110px" viewBox="0 0 152 110" version="1.1" xmlns="http://www.w3.org/2000/svg" xmlns:xlink="http://www.w3.org/1999/xlink">
    <!-- Generator: sketchtool 51.1 (57501) - http://www.bohemiancoding.com/sketch -->
    <title>FC6BAB2A-DC75-4080-9582-D410435568B0</title>
    <desc>Created with sketchtool.</desc>
    <defs></defs>
    <g id="Page-1" stroke="none" stroke-width="1" fill="none" fill-rule="evenodd">
        <g id="New-will---Confirmation-success" transform="translate(-644.000000, -171.000000)">
            <g id="Group" transform="translate(646.000000, 171.000000)">
                <g id="Group-5" transform="translate(0.000000, 38.000000)" fill="#FFFFFF" stroke="#0088FF" stroke-linecap="round" stroke-linejoin="round" stroke-width="4">
                    <path d="M115.4843,2.0929 C135.1023,8.7419 148.0003,20.0029 148.0003,32.7739 C148.0003,53.2089 114.9813,69.7739 74.2503,69.7739 C33.5193,69.7739 0.5003,53.2089 0.5003,32.7739 C0.5003,19.1949 15.0803,7.3249 36.8153,0.8879" id="Stroke-1"></path>
                </g>
                <g id="confirm" transform="translate(46.000000, 0.000000)" fill="#0088FF" fill-rule="nonzero">
                    <path d="M64.5432992,6.15964411 L59.9290766,1.49834461 C57.9516448,-0.499448202 54.6557531,-0.499448202 52.6783212,1.49834461 L27.1904618,27.469 L13.347923,13.4847108 C11.3703622,11.4870482 8.07459944,11.4870482 6.09716757,13.4847108 L1.48307391,18.1460103 C-0.49435797,20.1436729 -0.49435797,23.4732841 1.48307391,25.4710769 L23.235598,47.4461467 C24.1144853,48.3340257 25.4328162,49 26.9708044,49 L27.1905907,49 C28.5089216,49 29.8272525,48.5560605 30.7061397,47.4461467 L64.3236418,13.4845805 C66.5207311,11.486918 66.5207311,8.15743692 64.5432992,6.15964411 Z M61.4671938,10.3771344 L27.8495628,44.3385703 C27.6297765,44.5606051 27.4101191,44.5606051 27.4101191,44.5606051 L27.1903329,44.5606051 C26.9705466,44.5606051 26.7508892,44.5606051 26.7508892,44.3385703 L4.99836513,22.3636307 C4.5589215,21.9196913 4.5589215,21.4757518 4.77857886,21.2537169 L9.39267252,16.5924174 C9.61232988,16.3703826 9.83211615,16.3703826 9.83211615,16.3703826 C9.83211615,16.3703826 10.2715598,16.3703826 10.2715598,16.5924174 L25.6520868,32.1302995 C26.5309741,33.0181784 27.849305,33.0181784 28.7281922,32.1302995 L55.9738262,4.60592102 C56.4132698,4.16198153 56.6329271,4.16198153 57.0724997,4.60592102 L61.6867222,9.26722052 C61.6868511,9.48925538 61.6868511,9.93319487 61.4671938,10.3771344 Z" id="Shape"></path>
                </g>
            </g>
        </g>
    </g>
</svg>